<?xml version="1.0" encoding="UTF-8"?>
<svg version="1.1" viewBox="0 0 1024 1024" width="1024" height="1024" xmlns="http://www.w3.org/2000/svg">
<path transform="translate(0)" d="m0 0h1024v1024h-1024z" fill="#3A4B5A"/>
<path transform="translate(500,161)" d="m0 0h33l19 2 26 7 21 8 19 10 15 10 13 10 8 6v2l4 2 15 15 8 10 11 14 13 20 6 11 5-2h11l3 6 4 5 4 8 7 19 6 19v3h165l4 2 1 22v72l-1 2h-4l1 12h3l1 2v159l-4 3-138 1-9 2v2l16 6 17 4 24 4 47 1 8 7 2 2-1 5-11 18-6 11v8l9 16 4 9v8l-3 2h-16l-2-1h-29l-3 2-13 2-5 1h-28l-33-3-45-6-30-3-15-2-25-2-20-1-56-1h-92l-48 1-50 3-81 10-29 4-16 1h-23l-24-4-13-1h-31l-8-5 3-7 9-13 5-10-1-8-8-17-9-14 1-5 8-7 35-1 18-2 26-6 12-5v-2-3l-130-1-1-1v-269l1-3 2-1h99l67 1 2-9 7-24 2-3 12-1 1-3-3-3-5-2 3-9 9-20 15-25 8-11 10-14 12-13 7-9-9-9-1-7 4-6 14-8h11l16 6 21 8 4 1v-2l19-8 18-6 14-4 22-4z" fill="#161F28"/>
<path transform="translate(500,161)" d="m0 0h33l19 2 26 7 21 8 19 10 15 10 13 10 8 6v2l4 2 15 15 8 10 11 14 13 20 6 11 5-2h11l2 3-1 5h-15l3 5v3l-2 1-10 1-69 1-1 1v6l4 2 35 1h48l3 4 7 23v4h-433l1-7 6-18 5-11v-5l4-3 6-15 10-18 7-11 12-17 9-11 9-10 6-9v-2l-14-8-8-6-3-5 1-7 5-5 10-6 2-1h11l16 6 21 8 4 1v-2l19-8 18-6 14-4 22-4z" fill="#F15B11"/>
<path transform="translate(374,209)" d="m0 0 12 6 16 10 22 13 12 7-3 3-6 3-4-1-19-14-13-7-10 3-8 6-2 3v7l5 12-10-2h-7l-7 3-4 6-1 7 4 6 10 7 19 9 6 5 6 2v2l4 2 13 10 8 3 9-2 4-4 1-2-1-15 19-4 31-12 4 1 12 9 12 11 8 7 7 6 7 8 8 6 5 2h12l8-4 3-5 1-6-4-8 1-4 5-8 5-3v-3l-7-3-4-7h2v2h2l3 4 9 3 5 1 1 4h15l-1-7-13 1v-2l2-1 9-1-1-3 4-4 6 1v2l4 1 5 3h11l6-4h2v2l3 1 1 5v6l14-1-2-5-10-1 1-3-3-2 4-4 5-3 5-5 8-4-70-1-2-3v-9l3-2v-6l5-4 2-1h10l5 2h12l8-1h24l13 3 10 5h3l1-2 8 10 13 20 6 11 5-2h11l2 3-1 5h-15l3 5v3l-2 1-10 1-69 1-1 1v6l4 2 35 1h48l3 4 7 23v4h-433l1-7 6-18 5-11v-5l4-3 6-15 10-18 7-11 12-17 9-11 9-10z" fill="#DF4211"/>
<path transform="translate(268,372)" d="m0 0h64l12 2 9 4 8 6 6 8 4 10 1 6v65l-5 12-8 9-8 4h-2l7 28 12 41 7 23v4l-3 1h-31l-15-53-9-35v-4h-15v92h-34z" fill="#FAF9E5"/>
<path transform="translate(433,372)" d="m0 0h46l1 2 5 34 7 42 10 57 10 65 3 19v4h-34l-4-26-2-15v-5h-35l-2 23-3 23-34-1 2-17 3-18 10-74 8-54 7-49z" fill="#FAF9E5"/>
<path transform="translate(542,372)" d="m0 0h24l13 91 4 23 7 49 1 12h2l1-16 8-62 10-66 5-31h34l-1 9-7 44-6 35-6 38-5 32-9 57-2 8-46-1-2-9-9-54-6-31-12-72-6-34-3-16v-5z" fill="#FAF9E5"/>
<path transform="translate(370,180)" d="m0 0 7 1 47 18 7 3 7-1 8-5h5l4 5 1 6-4 5-3 3-1 2 11-2 13 4 5-2 10-5 5 5 1 2v6l-4 6-1 3 6-1 5-3 6-8 16-9 16-8 13-6 13-3 16 2 5 3 1 6-5 10-12 10-13 8-31 15v2l7 11 9-3 5 1 3 6v5l-5 4-3 2 4 9 11-1 4 5v5l-4 4-5 1 6 12 2 3-1 5-8 3-6-2-11-9-14-14-11-9-10-9-10-8-4-3-23 10-26 8-10 2h-5l3 13v6l-2 2h-5l-15-12-7-5-4-4-18-8-13-7-1-4 3-4h9l26 7-7-11-6-10-3-9 9-5 6 1 18 14 12 7 6-1 17-10 5-2-5-5-17-11-17-10-19-11-22-13-12-8-1-3 8-6z" fill="#17202A"/>
<path transform="translate(690,372)" d="m0 0h85l1 2-1 30h-57v58h29l4 1 1 7v23h-34v69l2-1h39l16 1v32l-21 1h-70v-222z" fill="#FAF9E5"/>
<path transform="translate(136,372)" d="m0 0h104v32h-33v191h-34v-191h-37z" fill="#FAF9E5"/>
<path transform="translate(366,171)" d="m0 0h11l16 6 21 8 13 5 5 1 9-5 10-1 8 4 6 8 2 11 7-1 8-4h8l5 3 6 7 15-8 16-8 16-7 11-3h15l12 3 7 6 2 9-2 8-5 10-5 6-25 15-15 6 7 2 6 8 1 3v10l-2 4 6 2 5 5 2 3 7 3-1 4-5 2-2 5-3 4 1 4 3 9-3 8-5 4-5 2h-12l-8-4-12-11v-2l-4-2-9-9-11-9-9-8-7-5-6 1-28 11-18 4 1 14-4 6-9 3-8-2-14-10-5-4v-2l-6-1-8-6-17-8-10-7-4-5-1-6 4-8 5-4 4-1h7l9 2-5-11v-7l6-7 10-5 5-1 13 7 20 15 4-1 7-3-4-3-26-15-23-14-18-10-10-7-5-5-1-7 4-6zm4 9-7 4-4 4 5 5 22 13 20 12 14 8 18 11 13 9 1 2-5 2-19 11-6-1-11-7-13-10-6-4-6 1-7 4 3 9 6 10 7 11-26-7h-9l-3 4 1 4 32 16 8 7 13 10 4 3h5l2-2-1-10-2-9 10-1 19-5 22-8 14-6 11 10 11 9 10 9 8 7 10 10 10 8 5 1 8-3 1-5-7-12-1-3 6-2 3-3-1-7-3-3-11 1-4-10 6-3 2-2-1-8-4-4-6 1-6 2-8-12 15-8 21-10 14-10 8-7 4-9-1-6-5-3-16-2-16 4-17 8-22 12-6 5-3 5-8 4h-3l3-6 2-3v-6l-4-6-3-1-12 7-10-3-8-1-8 2 2-4 5-4 1-5-3-6-2-2-7 1-8 5-7-1-52-20z" fill="#FAF9E5"/>
<path transform="translate(807,372)" d="m0 0h33v189l3-1h24l29 1v34h-90v-47z" fill="#FAF9E5"/>
<path transform="translate(528,143)" d="m0 0 23 2 23 5 23 8 20 9 15 8 17 12 10 8 14 12 17 17 10 13 16 24 9 16 3 9-16 2-2 1-3-7-10-16-12-17-12-14-7-8-10-10-2-1v-2l-5-2-9-8-16-11-13-8-17-8-16-6-26-7-19-2h-33l-21 3-17 4-19 6-15 6-7 3h-3v2l-7-1-13-5 1-4 12-7 12-6 30-11 25-6 10-2z" fill="#151D26"/>
<path transform="translate(364,172)" d="m0 0 2 1-1 5 8 1-3 2-7 4-3 3 4 4 22 13 20 12 14 8 18 11 14 10v2l-24 14-6-1-11-7-13-10-6-4-6 1-6 3 3 9 6 10 7 11-2 1-25-7h-9l-2 5v2l5 2 26 12 5 5 12 9 9 7h5l1-1-1-10-1-9 22-5 24-8 7-3h5v4l-1 3-2 2-7 2h-4v2l-18 6-5 2-10 1-2 10-1 4 1 4-1 3-4 2h-9l-6-2-16-12v-2l-6-1-8-6-17-8-10-7-4-5-1-6 4-8 5-4 4-1h7l9 2-5-11v-7l6-7 10-5 5-1 13 7 20 15 4-1 7-3-4-3-26-15-23-14-18-10-10-7-5-5-1-7 4-6z" fill="#FBFCF7"/>
<path transform="translate(302,404)" d="m0 0h29l5 4 2 4v53l-7 8h-17l-12-1z" fill="#172029"/>
<path transform="translate(594,623)" d="m0 0h7l3 1 2 15 2 29 7-32 3-10 1-1h6l3 3 1 10 1 32 9-42 1-1h9l-2 12-5 25-7 30-3 3-9-1-1-3-1-20-1-11h-2v7l-6 26-13-1-2-22z" fill="#FAF9E5"/>
<path transform="translate(326,276)" d="m0 0 2 1-8 15v5l1 4 5 2 3 4 4 1 2-5 3-2 11 1v1l-12 1-2 7h15l2-7h2v8l-6 4-1 2v9l5 4 3 8-3 4 21 1h356l2-2v4h-433l1-7 6-18 5-11v-5l4-3 6-15z" fill="#B53515"/>
<path transform="translate(664,629)" d="m0 0 14 2 7 6 2 5v8l-5 36-4 9-5 4h-9l-8-2-6-5-2-9 5-40 3-8 6-5z" fill="#FAF9E5"/>
<path transform="translate(773,646)" d="m0 0 19 4 6 3 4 6v13l-6 24-5 12-5 5-3 2-11-1-14-3 6-29 5-24z" fill="#FAF9E5"/>
<path transform="translate(376,237)" d="m0 0 13 1-3 3-6 3 3 9 6 10 7 11-2 1-25-7h-9l-2 5v2l5 2 26 12 5 5 12 9 9 7h5l1-1-1-10-1-9 22-5 24-8 7-3h5v4l-1 3-2 2-7 2h-4v2l-18 6-5 2-10 1-2 10-1 4 1 4-1 3-4 2h-9l-6-2-16-12v-2l-6-1-8-6-17-8-5-5-7-6-1-2v-7l3-5 4-2 10-1 2 1 10 1 4-2-1-3-4-2-1-4h-2l-1-8 3-5z" fill="#FBFCF9"/>
<path transform="translate(275,640)" d="m0 0h7l7 4 4 5 3 10 1 9-4 9 10 19 3 7v3l-9 1-12-22-1-3h-6l6 24v2l-9 3-6-18-12-47v-3z" fill="#FAF9E5"/>
<path transform="translate(697,633)" d="m0 0 9 1 13 2 5 4 3 5 1 9-2 12-3 6-5 3 2 16v15l-10-2-1-16-3-10-5-2-1 9-3 17h-10v-8l8-50z" fill="#FAF9E5"/>
<path transform="translate(320,633)" d="m0 0 4 1 17 46 6 18v2l-10 1-4-10-5 1h-8v12l-9 1-1-1-1-26v-26l1-17z" fill="#FAF9E5"/>
<path transform="translate(503,622)" d="m0 0h11l1 30h11l1-30h10v69h-10l-1-27-12-1v28l-2 1-9-1z" fill="#FAF9E5"/>
<path transform="translate(365,629)" d="m0 0h10l-1 21-3 42-1 6-4 1h-8l-4-8-12-36-7-22 9-2h2l11 34 4 13h1l1-22v-14l1-12z" fill="#FAF9E5"/>
<path transform="translate(545,622)" d="m0 0 31 1v11h-17l-3-1-1 20h14l1 1v9h-15v18l16 1 4 1-1 9h-24l-5-1z" fill="#FAF9E5"/>
<path transform="translate(404,626)" d="m0 0h7l1 1v10l-7 1h-12v18h16v9l-3 1-11 1v18l7-1h14v10l-29 2-5-40v-27l2-1z" fill="#FAF9E5"/>
<path transform="translate(456,423)" d="m0 0h1l7 45 6 45v5l-1 1h-24l1-16 5-38z" fill="#19252F"/>
<path transform="translate(710,314)" d="m0 0h12l3 4 4 10 3 11 1 1v7l-1 2-7 1-4 1-7-2-15 1-3 1h-10l-6-2h-12l-11-2-1 2-16-1-15 1-9 1-16-1h-15l-39-1-23 1-11 1-20-1-22 1-15-2h-8l-5-1v2h-22l-12 1h-11l-7-1h-17l-31-2v2h-33l-8 2-4-4 1-3v2h433l-6-21-4-9-11-1z" fill="#1D1D24"/>
<path transform="translate(389,228)" d="m0 0 6 2 12 7 17 13 4-1 7-3-4-3-3-3 7 2 2-4-1-2 5 2 11 8v2l-24 14-6-1-11-7-13-10-6-4-12-2-5 1-2 4v8h2l3 5 4 4-1 2-5 1-9-1-6-1-10 2-2 5v7l5 6 6 4-2 1-8-6-4-6 1-7 4-6 4-3 4-1h7l9 2-5-11v-7l6-7 10-5z" fill="#FAF9E5"/>
<path transform="translate(463,622)" d="m0 0h34v11h-11l1 15 1 30v14h-11l-2-58h-12z" fill="#FAF9E5"/>
<path transform="translate(592,252)" d="m0 0h72l5 3 1 4-4 4-2 1h-74l-2-2v-8z" fill="#161D26"/>
<path transform="translate(420,624)" d="m0 0h10l2 37v22l19-1v10l-2 1-26 1-1-1-2-35-1-21v-12z" fill="#FAF9E5"/>
<path transform="translate(250,644)" d="m0 0h2l2 6v4l-11 2 5 19 12 35v2l-10 2-9-25-8-28v-3l-9 3h-4l-2-10 13-3z" fill="#FAF9E5"/>
<path transform="translate(738,639)" d="m0 0 11 1-10 56v1l15 3v10l-2 1-26-5 2-13 5-25 4-26z" fill="#FAF9E5"/>
<path transform="translate(366,171)" d="m0 0h11l16 6 21 8 13 5 5 1 9-5 10-1 1 2-8 1-5 5v-2l-3 2-6 2 5 5 1 3-7-1-52-20-4-2-8-2z" fill="#FAF9E5"/>
<path transform="translate(665,640)" d="m0 0h8l4 3-1 15-4 27-2 4-9-1-2-1v-14l4-28z" fill="#19232D"/>
<path transform="translate(782,242)" d="m0 0h9l7 8 1 2v13l-6 7-3 1h-9l-6-5-2-6 1-10 5-8z" fill="#FBFCF8"/>
<path transform="translate(738,522)" d="m0 0h24l29 1-1 11-10 1h-43z" fill="#4A87A5"/>
<path transform="translate(187,667)" d="m0 0h7l6 3 6 6v9l-4 6-6 4-7 1-6-3-4-5-2-5 1-9 4-5z" fill="#EE5911"/>
<path transform="translate(832,667)" d="m0 0h8l7 6 2 4v9l-4 6-5 4h-9l-8-7-2-4v-8l5-7z" fill="#EC5811"/>
<path transform="translate(732,242)" d="m0 0h7l4 16 4-12 3-4h2l4 11 1 5 5-16h6l-1 8-6 21-3 3h-2l-4-11-2-3-4 13h-5l-3-7-5-17z" fill="#FBFCF8"/>
<path transform="translate(240,745)" d="m0 0h5l1 11 4-2 2-6h2l2 9 4 5 7 4-1 3h-8l-4-1 1 5 4 2-3 2-19-1h-3l-2-22h7z" fill="#13324B"/>
<path transform="translate(780,658)" d="m0 0 7 1 4 2 1 2-1 11-5 21-5 10-7-1-4-2 9-43z" fill="#1A252F"/>
<path transform="translate(864,242)" d="m0 0h10l7 3 5 6 1 2v10l-5 7-8 3h-7l-3-1z" fill="#FBFCF8"/>
<path transform="translate(166,242)" d="m0 0h14l5 5 3 5-1 6-5 4 1 4 4 11-5 1-4-5-4-8-3-1 1 13h-7z" fill="#FBFCF8"/>
<path transform="translate(859,444)" d="m0 0h44v13h-44z" fill="#4A87A5"/>
<path transform="translate(704,745)" d="m0 0h2l5 15 4-13 2-2 5 1-4 17-4 12-4 1-3-7-1-7h-2l-3 11-2 2-4-1-3-7-4-16v-5h6l2 9v5l2-1 4-12z" fill="#FBFCF8"/>
<path transform="translate(388,749)" d="m0 0 1 4h7l-1 18-1-2-13 4-3 3h-2l-2-7h-10l-1-5 1-1h9v-5h-8l-1-1v-5h10v-2h2v2l9-1 2 1z" fill="#16354C"/>
<path transform="translate(420,746)" d="m0 0h7l6 5 3 8-1 8-5 7-4 2-7-1-5-5-2-6v-8l6-8z" fill="#FBFCF8"/>
<path transform="translate(807,242)" d="m0 0h15l6 5 1 2v8l-5 5h-2l7 9v2l-5 1-4-4-4-7-3-1-1 11-4 1-1-1z" fill="#FBFCF9"/>
<path transform="translate(733,746)" d="m0 0 7 1 5 4 3 6v9l-6 8-3 2-7-1-5-5-2-4v-9l4-8z" fill="#FBFCF8"/>
<path transform="translate(803,746)" d="m0 0 12 1 5 5 2 3 1 10-3 6-3 3-3 1h-12v-28z" fill="#FBFCF8"/>
<path transform="translate(872,496)" d="m0 0h30l1 2-1 11-42-1-1-3v-8z" fill="#4A87A5"/>
<path transform="translate(859,523)" d="m0 0h44v12h-44z" fill="#4A87A5"/>
<path transform="translate(859,471)" d="m0 0h25l18 1v11h-43z" fill="#4A87A5"/>
<path transform="translate(326,745)" d="m0 0h4l5 10 3 3 7-12 5-1 1 1v29l-1 1h-5v-14l-3 3-3 4h-3l-3-5v-2h-3v14l-5-1v-11z" fill="#FBFCF8"/>
<path transform="translate(202,241)" d="m0 0h5l3 6 6 21 2 8-5 1-2-1-1-6h-10l-1 7h-6l1-10 6-19z" fill="#FBFCF8"/>
<path transform="translate(475,745)" d="m0 0h11l5 2 3 7v6l-5 4 2 4 3 5v3h-5l-5-8-4-3v11h-5l-1-18v-12z" fill="#FBFCF8"/>
<path transform="translate(444,187)" d="m0 0h8l8 6 2 6-2 3v9l6-1 8 1v9l-10-3-8-1-8 1 2-5 5-5-1-6-3-4-7 1-6 4-4-2-5-5 2-2 8-2 1-1z" fill="#FBFCFA"/>
<path transform="translate(123,444)" d="m0 0h34v13h-34z" fill="#4A87A5"/>
<path transform="translate(285,654)" d="m0 0 4 3 2 7 4 9-2 4 10 19 3 7v3l-9 1-9-17v-6h-2l-2-5v-3l-4-2v-2l6-4z" fill="#FAF9E6"/>
<path transform="translate(251,241)" d="m0 0h18v6l-1 1h-11v8h10v5l-1 1h-9l1 7h12v6l-1 1-18 1z" fill="#FBFCF9"/>
<path transform="translate(754,746)" d="m0 0h12l5 4 2 4v5l-5 6 6 7v4h-6l-5-9-5-2 1 2v8h-5z" fill="#FBFCF8"/>
<path transform="translate(760,443)" d="m0 0h12l19 1v13l-29 1-4-13z" fill="#4A87A5"/>
<path transform="translate(124,471)" d="m0 0h33v12h-34v-11z" fill="#4A87A5"/>
<path transform="translate(579,750)" d="m0 0h1v7l5-1h7l8 1h2l-1-3h5l-1 6h2l2-2v16h-1v-5h-4v3l-13 3v-8h-11l-1-1z" fill="#123149"/>
<path transform="translate(630,745)" d="m0 0h3l1 12h8v-11l5-1 1 2v28h-6v-12l-9 1v11h-5l-1-1v-17l1-10z" fill="#FBFCF9"/>
<path transform="translate(239,240)" d="m0 0 4 1v7l-6 20-3 8-4 1-3-5-6-21-1-10h6l5 21 6-20z" fill="#FBFCF8"/>
<path transform="translate(223,471)" d="m0 0h31v12l-8 1h-23z" fill="#4A87A5"/>
<path transform="translate(508,744)" d="m0 0 4 2 6 16 3 9v4l-6 1-1-1v-6l-9-1-1 8h-6l-1-2 9-28z" fill="#EFF1EE"/>
<path transform="translate(145,522)" d="m0 0h12v12l-3 1h-31v-12z" fill="#4A87A5"/>
<path transform="translate(223,444)" d="m0 0h30v13h-30z" fill="#4A87A5"/>
<path transform="translate(148,496)" d="m0 0h9v12l-4 1-29-1v-11z" fill="#4A87A5"/>
<path transform="translate(358,745)" d="m0 0h17l-1 7h-10l1 5 8 1v5l-9 1v4l10 1 1 6-16 1-1-1z" fill="#FBFCF7"/>
<path transform="translate(223,496)" d="m0 0h30v13l-30-1z" fill="#4A87A5"/>
<path transform="translate(655,745)" d="m0 0h18l-1 7h-11v6h8l1 5-10 1v4l12 1 1 5-1 1h-17z" fill="#FBFCF9"/>
<path transform="translate(550,745)" d="m0 0h16v8h-11v5h9l1 4-1 1h-10v5h12l1 4-1 4h-16l-1-30z" fill="#FBFCF8"/>
<path transform="translate(232,522)" d="m0 0h18l3 1v12l-30-1v-11z" fill="#4A87A5"/>
<path transform="translate(138,241)" d="m0 0h21l1 8h-8v28h-6v-28h-9v-7z" fill="#FBFCF7"/>
<path transform="translate(740,443)" d="m0 0h20l-1 2 3 13-8-1-2 5v8h-1v-7l-19-1v-1l13-1-3-2v-2h-2z" fill="#3A4C5B"/>
<path transform="translate(845,242)" d="m0 0h2l2 10 3 3 4-1 3-2h4v-9l2 1-1 26-5 2h-3l-1-5h-10z" fill="#18344A"/>
<path transform="translate(259,747)" d="m0 0h9l3 4-1 4-6-1-4-1 1 3 9 5 3 3v6l-4 5-7 1-8-3v-5h12v-2l-8-5-3-4 1-6z" fill="#FBFCF8"/>
<path transform="translate(521,744)" d="m0 0h6l5 18 2-2 5-15 5-1 1 2-9 27-2 3-4-1-9-27z" fill="#FBFCF8"/>
<path transform="translate(439,749)" d="m0 0 8 1 2-1v4l6 2v9h-11v2h-2l-1 4-4 2h-2l-5 4h-2v-2l5-5 2-6v-13h3z" fill="#153249"/>
<path transform="translate(833,242)" d="m0 0h5v29l-2-1-6 3v-2l-4-2-4-5v-2l6-5v-12l5-1z" fill="#19354B"/>
<path transform="translate(278,241)" d="m0 0h6v28h13l-1 7h-18l-1-27z" fill="#FBFCFA"/>
<path transform="translate(643,523)" d="m0 0h27v11h-28l-1-2z" fill="#4A87A5"/>
<path transform="translate(469,745)" d="m0 0h5v32h-2v-2l-5 1-2-2-1 3-4-1h3l-1-10v-13l6-1z" fill="#152F45"/>
<path transform="translate(307,745)" d="m0 0h2l1 5 1-5h1l1 31h-12l-1-6v-17l6-1z" fill="#163851"/>
<path transform="translate(271,749)" d="m0 0 8 5 1 4 6 1 2-5 7-1v12l-1 8h-1v-9h-8l-5 3-7-2-6-5-7-4v-3l10 1z" fill="#14324A"/>
<path transform="translate(160,240)" d="m0 0 5 1v26h-1l-1-7-1 9-5 3h-2l-1 5h-1l-1-17v-11h8z" fill="#12324B"/>
<path transform="translate(510,471)" d="m0 0h22l2 8v5h-21l-2-5z" fill="#4A87A5"/>
<path transform="translate(769,496)" d="m0 0h22v8l-1 5-23-1v-11z" fill="#4A87A5"/>
<path transform="translate(272,651)" d="m0 0h10l3 5 2 6v6l-5 4-8 1-4-17v-4z" fill="#1B2731"/>
<path transform="translate(214,745)" d="m0 0h7l1 7 6 2-1 21-5-1-6 2-1-28z" fill="#12324B"/>
<path transform="translate(648,497)" d="m0 0h22v12h-24l1-10z" fill="#4A87A5"/>
<path transform="translate(449,745)" d="m0 0h20v7l-1 1h-6v22l-5 1-1-4 1-19h-8z" fill="#FBFCF8"/>
<path transform="translate(391,236)" d="m0 0 8 1 4 3v3l6-2 3 2v2l8 4v2l4 1 3 3-3 5-6-1-16-12-10-7v-2l-2-1z" fill="#FBFCF9"/>
<path transform="translate(376,497)" d="m0 0h24l-1 8-1 3h-20l-5-1 1-6z" fill="#4A87A5"/>
<path transform="translate(705,645)" d="m0 0 9 1 4 3-1 10-3 8-11-1-1-2z" fill="#1B2833"/>
<path transform="translate(769,471)" d="m0 0h22v12h-22z" fill="#4A87A5"/>
<path transform="translate(787,752)" d="m0 0 9 3v2h4l1-2v21h-4v-7h-12v-15z" fill="#15344C"/>
<path transform="translate(838,241)" d="m0 0h6l1 1v25l3-1h7l1 1v5l-4 1h-10l-3-1z" fill="#FBFCF9"/>
<path transform="translate(386,444)" d="m0 0h22l-2 12-1 1h-19z" fill="#4A87A5"/>
<path transform="translate(390,745)" d="m0 0h18v8h-7l1 12v10h-6v-22h-6z" fill="#FBFCF6"/>
<path transform="translate(515,497)" d="m0 0h21l2 6v5l-6 1h-15l-2-7z" fill="#4A87A5"/>
<path transform="translate(546,745)" d="m0 0h3v31l-2-3-10 2-2 1 1-6 8-24z" fill="#173246"/>
<path transform="translate(571,747)" d="m0 0h1v30l-5-1-1-7h-10l-2-1v-5l10-1v-4h-9l-1-5 4-1h10l1 12z" fill="#152E42"/>
<path transform="translate(371,523)" d="m0 0h25l-1 8-1 3h-20l-3-9z" fill="#4A87A5"/>
<path transform="translate(507,444)" d="m0 0h22v12h-20z" fill="#4A87A5"/>
<path transform="translate(404,626)" d="m0 0h7l1 1v10l-7 1h-12l2-1-1-5h-8l-2 5-1 6h-1v-14l2-1z" fill="#FAF9E5"/>
<path transform="translate(288,746)" d="m0 0h19v6l-1 1h-6l1 22h-6v-22h-7z" fill="#FBFCF9"/>
<path transform="translate(224,549)" d="m0 0h29v8l-1 1h-28l-1-1z" fill="#4A87A5"/>
<path transform="translate(641,549)" d="m0 0 29 1v8h-30v-8z" fill="#4A87A5"/>
<path transform="translate(222,746)" d="m0 0h17l1 3-1 5h-7l1 4v17h-5v-21l-6-1-1-1v-5z" fill="#FBFCF8"/>
<path transform="translate(519,523)" d="m0 0h21l1 1 1 10h-22l-1-1z" fill="#4A87A5"/>
<path transform="translate(603,746)" d="m0 0h19v6l-7 2v20l-5 1-1-22-6 1z" fill="#FBFCF8"/>
<path transform="translate(409,746)" d="m0 0 2 3 4 1-1 4-1 2v8l3 7 3 3-1 2-4-3v-2l-10-1-1 4-2-9v-12h7z" fill="#183349"/>
<path transform="translate(662,471)" d="m0 0h8v13l-21-1 2-11z" fill="#4A87A5"/>
<path transform="translate(784,249)" d="m0 0h6l3 3 1 8-3 5-2 2h-6l-5-6v-6l4-5z" fill="#374D5F"/>
<path transform="translate(573,746)" d="m0 0h5l1 22 10 1v7h-16z" fill="#FBFCFA"/>
<path transform="translate(780,747)" d="m0 0h5v22h11v7l-16-1-1-10v-10z" fill="#FBFCF8"/>
<path transform="translate(387,471)" d="m0 0h17l-2 12-2 1-16-1 1-9z" fill="#4A87A5"/>
<path transform="translate(848,718)" d="m0 0h9l2 2-1 5h-22l-11-1-3-2v-2l4-1z" fill="#B53516"/>
<path transform="translate(146,550)" d="m0 0h11v8h-26l-5-1 1-6z" fill="#4A87A5"/>
<path transform="translate(356,744)" d="m0 0h2l1 31 2 2-9-1-1-1v-14l1-15 4 2z" fill="#152A3B"/>
<path transform="translate(661,444)" d="m0 0h10v11l-2 2-16-1 2-11z" fill="#4A87A5"/>
<path transform="translate(532,313)" d="m0 0 6 4 6 5 5 1 6-1 2 6-3 3h-10l-8-4-3-5 1-4z" fill="#FBFCF9"/>
<path transform="translate(319,653)" d="m0 0 3 3 7 22-1 4h-9l-1-24z" fill="#202E3A"/>
<path transform="translate(651,809)" d="m0 0 4 1 2 2-1 5-5 4-4 2h-7l-3-5 1-4z" fill="#FAF9E5"/>
<path transform="translate(677,793)" d="m0 0h5v9l-8 6-5 1-4-4 1-6 3-3z" fill="#FAF9E5"/>
<path transform="translate(515,750)" d="m0 0 5 4v-3l3 1 6 18v4l-6-2-1 2-4-9-3-9z" fill="#203C50"/>
<path transform="translate(661,753)" d="m0 0h11l1 1v7h3l1 3-2 4-1 6-2-1v-4h-9l-3-1v-4l10-1-1-4-8-1z" fill="#1F4057"/>
<path transform="translate(540,258)" d="m0 0 11 1 4 4v7l-5 3-4 7h-5l-2-3 8-5-1-8-3-3-6 1-6 2-2-2 1-3 5 1z" fill="#FBFCF9"/>
<path transform="translate(623,749)" d="m0 0 2 4-1 3 1 3 1-8h1v15l-1 2-6 2h-4v-14l-2-3 9-1z" fill="#132F46"/>
<path transform="translate(733,753)" d="m0 0h6l3 3 1 5-2 6-3 2-6-1-2-3v-8z" fill="#1C3B51"/>
<path transform="translate(285,654)" d="m0 0 4 3 2 7 3 7-5 3 1 1v10l1 7h-2l-1-6v-2h-2l-2-5v-3l-4-2v-2l6-4z" fill="#FBFCF9"/>
<path transform="translate(504,838)" d="m0 0h14l2 2v7l-4 2-10-1-3-2v-6z" fill="#FBFCF8"/>
<path transform="translate(210,747)" d="m0 0h5v29l-5-1-1-1v-19z" fill="#FBFCF8"/>
<path transform="translate(870,248)" d="m0 0 8 2 2 2 1 5-2 6-4 3h-5l-1-17z" fill="#1C3D55"/>
<path transform="translate(538,837)" d="m0 0h10l1 2v6l-4 3-12-1-2-6 1-3z" fill="#FBFCF8"/>
<path transform="translate(423,752)" d="m0 0 5 1 2 2v9l-5 5-4-1-3-4v-7z" fill="#1E2D39"/>
<path transform="translate(252,748)" d="m0 0h2l2 9 4 5 7 4-1 3h-12l-2 2v-7l-5-7 3-3z" fill="#1C2B37"/>
<path transform="translate(371,811)" d="m0 0 8 1 6 3 1 1-1 7-1 1-7-1-8-4 1-7z" fill="#FAF9E6"/>
<path transform="translate(343,798)" d="m0 0 15 6 2 4-2 5-7-1-9-5v-8z" fill="#FBFCF6"/>
<path transform="translate(623,822)" d="m0 0h5l2 4-1 5-10 5-4-1-2-4 1-5 8-3z" fill="#FBFCF7"/>
<path transform="translate(424,828)" d="m0 0 9 1 6 3-1 7-1 1-9-1-5-2-1-1 1-7z" fill="#FAF9E8"/>
<path transform="translate(364,172)" d="m0 0 2 1-1 5 8 1-3 2-7 4-3 3-1 4-4-6-2-4-3 1 2-4z" fill="#FBFCF8"/>
<path transform="translate(313,746)" d="m0 0h5v29h-5l-1-1z" fill="#FBFCF9"/>
<path transform="translate(164,718)" d="m0 0h29l2 1-1 4h-30l-1-3z" fill="#B53516"/>
<path transform="translate(777,752)" d="m0 0h1l1 12v12h-4l-3-5-5-7 5-5h2v-5h3z" fill="#19242E"/>
<path transform="translate(526,550)" d="m0 0h18l1 2v6h-19z" fill="#4A87A5"/>
<path transform="translate(452,833)" d="m0 0 12 2 1 1v6l-1 2-4 1-8-2-3-2v-6z" fill="#FBFCF9"/>
<path transform="translate(596,830)" d="m0 0h7v8l-6 3h-8l-2-2v-6z" fill="#FBFCF7"/>
<path transform="translate(220,241)" d="m0 0h6l4 17v8h-2l-2 2-5-17z" fill="#FBFCF9"/>
<path transform="translate(566,835)" d="m0 0h10l1 1v6l-2 2-4 1h-9l-2-7z" fill="#FBFCF9"/>
<path transform="translate(399,820)" d="m0 0 10 3 3 2v5l-3 3-6-1-7-3v-6z" fill="#FAF9E8"/>
<path transform="translate(166,715)" d="m0 0h36l-3 2-35 1-3 1-1 5-2 1h-8l-3-3 1-3h8z" fill="#1C1D24"/>
<path transform="translate(478,837)" d="m0 0 12 1 2 2v6l-2 2-11-1-2-1-1-5z" fill="#FAF9E6"/>
<path transform="translate(331,762)" d="m0 0h2l3 5v2l4-2 3-5h2v14h-9-4-1z" fill="#23313D"/>
<path transform="translate(722,748)" d="m0 0 1 3 3 1v18l-6 1v-3h-2l-2 4 1-9 4-14z" fill="#1D2B38"/>
<path transform="translate(337,303)" d="m0 0h8l7 2v5l-2 2h-13l-2-1v-6z" fill="#FBFBF3"/>
<path transform="translate(716,286)" d="m0 0h11l2 3-1 5h-18l1-6z" fill="#FBFCF6"/>
<path transform="translate(364,303)" d="m0 0h16l1 1v6l-2 1h-15l-1-3z" fill="#FAF9E5"/>
<path transform="translate(495,756)" d="m0 0 2 4 4-1-1 8-2 10h-4l-3-8-3-3 2-4 4-3z" fill="#20313E"/>
<path transform="translate(240,745)" d="m0 0h5l1 14-11 1v12h-1l-2-18h7z" fill="#1B2935"/>
<path transform="translate(710,636)" d="m0 0h9l3 5h-2l1 2v6l-3 1-4-3-5-2-1-6z" fill="#FBFCF9"/>
<path transform="translate(834,665)" d="m0 0h8l2 1h4l3 10v12h-2l-1 7-4 1-2-1v2l-6 2-6-2 1-2h9l6-5 2-4v-9l-4-6-4-3-7-1z" fill="#1F2129"/>
<path transform="translate(209,247)" d="m0 0 2 4 3 11v3l-3 1-9-3 2-11 3-3h2z" fill="#FAF9E5"/>
<path transform="translate(807,753)" d="m0 0 7 1 3 5-1 6-5 4-4-1z" fill="#1D3D54"/>
<path transform="translate(831,716)" d="m0 0h27v1l-10 2-26 1 3 4h-5l-2-3 1-1-9-1 2-2z" fill="#242932"/>
<path transform="translate(257,262)" d="m0 0h14l1 4 1 9h-2l-1 2v-8l-4 1h-8l-1-1z" fill="#1C3D54"/>
<path transform="translate(249,240)" d="m0 0h1v12l-1 5-6 2-2-1-2 4 1-8 4-13 1 3h3z" fill="#163248"/>
<path transform="translate(236,241)" d="m0 0h1l-1 8-4 13-2 1-3-13v-7l5-1 4 1z" fill="#1B3B52"/>
<path transform="translate(597,286)" d="m0 0 3 1v7l-4 1h-11l-1-1v-5l4-2z" fill="#FAF9E5"/>
<path transform="translate(553,235)" d="m0 0h6l2 4-3 2-7 2-3 2-6-1-6 2v-3z" fill="#FBFCF9"/>
<path transform="translate(313,303)" d="m0 0h10l2 3-1 5-7 1-7-2v-5z" fill="#FBFBF0"/>
<path transform="translate(384,628)" d="m0 0h13l5 5 1 3-3 2h-7l2-1-1-5h-8l-2 5-1 6h-1v-14z" fill="#FBFCFA"/>
<path transform="translate(160,240)" d="m0 0 5 1v26h-1v-19h-2v2l-5 2h-3v25h-1l-1-17v-11h8z" fill="#14212E"/>
<path transform="translate(461,308)" d="m0 0h14l1 1v6l-5 1-11-1v-6z" fill="#FAF9E5"/>
<path transform="translate(217,301)" d="m0 0h13l1 1v6l-1 1h-10l-4-2v-5z" fill="#FBFCF8"/>
<path transform="translate(350,260)" d="m0 0v3l-3 7 1 6 5 6 16 9 11 5-1 2-19-8-5-3-8-6-3-8 1-5z" fill="#BD3715"/>
<path transform="translate(640,627)" d="m0 0h9l-2 12-1 4-2-1v-5h-1l-4 1-1 3-1-4 2-9z" fill="#FBFCF7"/>
<path transform="translate(495,307)" d="m0 0h7l1 1v6l-1 1h-12l-2-1v-6z" fill="#FAF9E5"/>
<path transform="translate(648,747)" d="m0 0h1l2 12 2-11h1l1 26h-3v2h-3l-1-16z" fill="#153147"/>
<path transform="translate(586,193)" d="m0 0 3 3-2 1 3 5-3 9-4 1 1-9-3-3-11-3v-1l14-2z" fill="#FBFCF9"/>
<path transform="translate(711,295)" d="m0 0 4 2 1 5-2 1-10 1h-69v-1l62-1 14-1 2-2z" fill="#B53516"/>
<path transform="translate(771,285)" d="m0 0 11 1 1 1v5l-2 1h-13l1-7z" fill="#FBFCF6"/>
<path transform="translate(164,301)" d="m0 0h11l1 7-3 1h-9l-2-1v-6z" fill="#FBFCF7"/>
<path transform="translate(464,210)" d="m0 0 10 1v9l-10-3-8-1-4-1 12-4z" fill="#FBFCF8"/>
<path transform="translate(442,180)" d="m0 0 8 1 4 3 3 1v2l4 2 4 5-1 3-6-8-7-3-10 1-9 5-4-1 12-6z" fill="#D94011"/>
<path transform="translate(319,746)" d="m0 0 2 4 1 4 2-8h1v21l-2 1v-5h-2l-1 13h-1z" fill="#141D26"/>
<path transform="translate(214,745)" d="m0 0h7l1 7 6 2-1 6-1-4-7 2-2 10h-1l-1-20z" fill="#17212B"/>
<path transform="translate(244,302)" d="m0 0h12v8h-10l-3-1v-6z" fill="#FBFCF8"/>
<path transform="translate(189,301)" d="m0 0h14v7h-14z" fill="#FBFCFA"/>
<path transform="translate(659,632)" d="m0 0h2v7l-5 9-2 8-2 1 1-14 3-8z" fill="#FBFCF9"/>
<path transform="translate(740,286)" d="m0 0h14v7h-14z" fill="#FBFCF7"/>
<path transform="translate(267,302)" d="m0 0h11l1 1v7h-11l-1-1z" fill="#FBFCF9"/>
<path transform="translate(418,238)" d="m0 0 6 2 9 6v2l-9 1-6-4z" fill="#F25C11"/>
<path transform="translate(639,287)" d="m0 0h11l2 2v4l-2 1h-12v-6z" fill="#FAF9E8"/>
<path transform="translate(434,308)" d="m0 0h14l1 5-5 2-9-1-1-1z" fill="#FAF9E5"/>
<path transform="translate(612,287)" d="m0 0h12l1 5-3 2h-10l-1-4z" fill="#FAF9E5"/>
<path transform="translate(661,288)" d="m0 0h14l1 5-1 1h-14z" fill="#FAF9E5"/>
<path transform="translate(620,563)" d="m0 0h3l1 2v7l-3 11-3 3h-1l1-12z" fill="#262B34"/>
<path transform="translate(144,300)" d="m0 0 4 1 1 6-1 1h-9l-3-1v-5l1-1z" fill="#FBFCF6"/>
<path transform="translate(292,303)" d="m0 0h7l4 4-2 4h-9l-1-1v-6z" fill="#FBFCF7"/>
<path transform="translate(378,550)" d="m0 0h11l1 1v6h-8l-5-3z" fill="#3E5A6C"/>
<path transform="translate(344,631)" d="m0 0h2l2 10-11-2-2-6z" fill="#FBFCF8"/>
<path transform="translate(815,248)" d="m0 0h5l2 2v5l-2 2-8-1v-7z" fill="#20455F"/>
<path transform="translate(638,814)" d="m0 0h6l5 5v3l-2 1h-7l-3-5z" fill="#FBFCF9"/>
<path transform="translate(635,763)" d="m0 0h7v12l-2-1-1-4-5 5-1-11z" fill="#1B2D3B"/>
<path transform="translate(797,285)" d="m0 0h12l2 2-1 4h-13z" fill="#FAF9E5"/>
<path transform="translate(233,262)" d="m0 0h1v14l-4 1-3-5-1-4 3-4z" fill="#FAF9E6"/>
<path transform="translate(568,237)" d="m0 0v3l-6 4-10 5h-2l5 6-1 3-4-5-9-2 2-2 17-7z" fill="#D84011"/>
<path transform="translate(688,287)" d="m0 0h12l2 1-1 4-4 1h-8l-2-4z" fill="#FAF9E5"/>
<path transform="translate(239,240)" d="m0 0 4 1v7l-2 3-3 3h-4l3-12z" fill="#FBFBF1"/>
<path transform="translate(689,281)" d="m0 0 5 2v2l3 1h-9v5l1 1h12l1-3 1 2-3 3h-12l-2-2v-5l-2-1-1-2h2v-2z" fill="#F15A11"/>
<path transform="translate(173,248)" d="m0 0h6l2 3v5l-1 1h-8v-8z" fill="#234861"/>
<path transform="translate(489,275)" d="m0 0 5 3 5 4v4h-2v2h2l1 3-4-2-5-5z" fill="#FBFCF8"/>
<path transform="translate(723,754)" d="m0 0 2 3 1 13-6 1v-3h-2l2-6z" fill="#17344B"/>
<path transform="translate(515,750)" d="m0 0 5 4v-3l3 1v6h-2v9h-2l-4-11z" fill="#182F42"/>
<path transform="translate(505,768)" d="m0 0 9 1v7h-10v-6z" fill="#193143"/>
<path transform="translate(627,757)" d="m0 0h1v8l5-1v11h-5l-1-1z" fill="#FAF9E5"/>
<path transform="translate(460,462)" d="m0 0h3l1 10-2 4-4-2-2-4 4-6z" fill="#22242C"/>
<path transform="translate(481,752)" d="m0 0h6l2 3-1 4-2 2-5-1-1-1v-6z" fill="#243744"/>
<path transform="translate(714,745)" d="m0 0h1l-1 9-2 7-2-1-2-6v-7l5-1z" fill="#1F2E3A"/>
<path transform="translate(307,745)" d="m0 0h2l1 5 1-5h1v26h-1l-1-14-6-2v-2l2-1z" fill="#151F29"/>
<path transform="translate(376,294)" d="m0 0 5 1 8 5 4 1 4 4v2l5 2v2l3 1-1 2-9-7-3-2v-2l-6-1-8-6z" fill="#FAF9E5"/>
<path transform="translate(704,762)" d="m0 0h2l2 7v6h-7l1-8z" fill="#223644"/>
<path transform="translate(758,765)" d="m0 0 5 1 4 6-1 4h-6z" fill="#1E3344"/>
<path transform="translate(564,762)" d="m0 0 1 2-1 3 2 1-1 1h-9l-2-1v-5z" fill="#263C4B"/>
<path transform="translate(400,761)" d="m0 0 2 4v10h-6v-7z" fill="#FAF9E6"/>
<path transform="translate(849,680)" d="m0 0h1l1 8h-2l-1 7-4 1-2-1v2l-6 2-6-2 1-2h9l6-5 2-4z" fill="#1E1F26"/>
<path transform="translate(480,765)" d="m0 0 4 2 3 3 2 7h-8z" fill="#1B3143"/>
<path transform="translate(661,753)" d="m0 0h11l1 1v5l-2 1v-2h-10z" fill="#163147"/>
<path transform="translate(595,833)" d="m0 0h4l1 7-9 1-1-5z" fill="#FAF9E5"/>
<path transform="translate(333,769)" d="m0 0 8 1 1 5 2 1h-8-4-1v-6z" fill="#122F46"/>
<path transform="translate(246,745)" d="m0 0 5 2 1 4-2 4-5 2v-11z" fill="#FBFCF8"/>
<path transform="translate(634,746)" d="m0 0 4 5 1 1 1-4h2v9h-8z" fill="#1A242E"/>
<path transform="translate(424,828)" d="m0 0 9 1 6 3-1 7-5 1 4-2v-5h-6l-3-2h-3l-2 2z" fill="#FBFCF8"/>
<path transform="translate(812,717)" d="m0 0h17v2l-7 1 3 4h-5l-2-3 1-1-9-1z" fill="#272E38"/>
<path transform="translate(365,305)" d="m0 0h14l-1 5h-11l-2-1z" fill="#FCFDFB"/>
<path transform="translate(529,749)" d="m0 0 4 3h3l-1 8-3 3-3-7z" fill="#213544"/>
<path transform="translate(743,699)" d="m0 0 11 1v10l-2 1-4-2 2-2-1-4-6-3z" fill="#FBFCF9"/>
<path transform="translate(495,756)" d="m0 0 2 4 4-1-1 8-2 3-1-2h-3v-9z" fill="#1A3B53"/>
<path transform="translate(152,249)" d="m0 0h8v2l-6 1v25h-1l-1-17z" fill="#1A242E"/>
<path transform="translate(761,752)" d="m0 0 5 1 1 4-2 3-6-1-1-3 1-3z" fill="#224862"/>
<path transform="translate(336,749)" d="m0 0h6l-1 6-4 4-3-4 1-4z" fill="#1C3A50"/>
<path transform="translate(448,753)" d="m0 0h9v19l-2 4-1-21-6-1z" fill="#274253"/>
<path transform="translate(555,752)" d="m0 0 11 1-2 4v1h-9l-1-5z" fill="#234962"/>
<path transform="translate(366,204)" d="m0 0 6 1v2l9 3 9 6 2 3-5-2-16-9-5-3z" fill="#FAF9E5"/>
<path transform="translate(263,256)" d="m0 0h4v5l-1 1h-9l1-5z" fill="#FAF9E6"/>
<path transform="translate(355,179)" d="m0 0 4 2 1 4 2 1-2 2-1 4-4-6-2-6z" fill="#FAF9E5"/>
<path transform="translate(214,265)" d="m0 0 2 3 2 8-5 1-2-1-1-6h4z" fill="#FAF9E7"/>
<path transform="translate(482,206)" d="m0 0 4 1 1 5-5 3h-2l-1-8z" fill="#FBFCF9"/>
<path transform="translate(271,749)" d="m0 0 2 1v6l-7 2-6-2v-3l10 1z" fill="#1F2F3C"/>
<path transform="translate(161,719)" d="m0 0h1v5h17v1l-15 1h-15l1-2h10z" fill="#151D26"/>
<path transform="translate(698,268)" d="m0 0 4 4 8 13 1 5-2 4-2-7-7-14z" fill="#B53515"/>
<path transform="translate(490,309)" d="m0 0h10v4h-10z" fill="#FCFDFB"/>
<path transform="translate(799,250)" d="m0 0 3 3v12l-3 2z" fill="#1F3D52"/>
<path transform="translate(208,714)" d="m0 0h7l-2 5h-6l-4-3z" fill="#1D1D24"/>
<path transform="translate(396,309)" d="m0 0 5 2 10 7 11 3v1h-8l-8-4-10-8z" fill="#C13814"/>
<path transform="translate(586,289)" d="m0 0h10v4h-11z" fill="#FCFDFB"/>
<path transform="translate(558,264)" d="m0 0h1v10l-1 2 5 2v2l-9-3 2-4 1-8z" fill="#DD4311"/>
<path transform="translate(701,746)" d="m0 0 1 4-4 10h-2v-10h3z" fill="#233542"/>
<path transform="translate(401,753)" d="m0 0 3 1v20h-1l-2-9z" fill="#243C4B"/>
<path transform="translate(609,752)" d="m0 0h1v10h-3v-2h-2v-4l-2-1 1-2z" fill="#324656"/>
<path transform="translate(567,752)" d="m0 0h1l-1 12h-3l-1-8-1-2z" fill="#17232D"/>
<path transform="translate(796,262)" d="m0 0h3l-1 5-3 2-4-1 1-5z" fill="#FAF9E6"/>
<path transform="translate(204,253)" d="m0 0 2 1 2 10h-5l-1-2z" fill="#41677D"/>
<path transform="translate(741,246)" d="m0 0 1 2 3-1v8l-2 4-2-4z" fill="#233F53"/>
<path transform="translate(195,666)" d="m0 0 7 3 5 6 1 7-2 1-1-7-8-7-2-1z" fill="#22252E"/>
<path transform="translate(813,262)" d="m0 0 4 1 2 3v3l-4 1-2 2z" fill="#1E3A50"/>
<path transform="translate(496,767)" d="m0 0 2 1v9h-4l-1-7z" fill="#213848"/>
<path transform="translate(370,249)" d="m0 0 3 3 3 8-9-2 3-2z" fill="#BD3715"/>
<path transform="translate(172,249)" d="m0 0h1v7l1-1v-5l4 1v5l2 1h-8z" fill="#3A4E5E"/>
<path transform="translate(524,762)" d="m0 0 3 1 2 7v4h-2l-3-6z" fill="#1D2B37"/>
<path transform="translate(545,282)" d="m0 0 6 2 2 2-5 2-5-1 1-3z" fill="#FBFCF8"/>
<path transform="translate(421,237)" d="m0 0 14 7v3l-4-2-11-6z" fill="#D43E12"/>
<path transform="translate(478,837)" d="m0 0 11 1v1l-11 1 2 6h-3l-1-5z" fill="#FBFCF6"/>
<path transform="translate(456,213)" d="m0 0 9 1 4 4-13-2-4-1z" fill="#FAF9E5"/>
<path transform="translate(184,668)" d="m0 0 3 1-3 3-1 4-5 1 1-4z" fill="#D74612"/>
<path transform="translate(270,242)" d="m0 0h1v7l-1 3h-2v-2l-10-1v-1l10-1z" fill="#143148"/>
<path transform="translate(632,767)" d="m0 0h1v8h-5v-6z" fill="#FCFDFB"/>
<path transform="translate(331,762)" d="m0 0h2l3 5v2l3 1h-8z" fill="#243542"/>
<path transform="translate(385,816)" d="m0 0h1l-1 7-1 1-7-1v-3l6 1z" fill="#FBFCF7"/>
<path transform="translate(516,756)" d="m0 0 3 1 2 6v4h-2l-3-8z" fill="#223240"/>
<path transform="translate(397,755)" d="m0 0 2 1v4l2 1-4 7h-1z" fill="#FBFCFA"/>
<path transform="translate(613,289)" d="m0 0h8l-1 3-7 1z" fill="#FCFDFB"/>
<path transform="translate(704,787)" d="m0 0 4 1-1 4-3 1-2-1v-4z" fill="#4A87A5"/>
<path transform="translate(688,758)" d="m0 0 3 1 1 4v7l-2-2v-4h-2z" fill="#1C3A51"/>
<path transform="translate(207,682)" d="m0 0 1 2-3 6-5 5-2-2 5-4z" fill="#1E1E26"/>
<path transform="translate(422,441)" d="m0 0h1l-1 11-1 6h-1l-1-12z" fill="#2A3845"/>
<path transform="translate(233,250)" d="m0 0h1l-1 9-2 4h-1v-8l2-3z" fill="#243745"/>
<path transform="translate(768,244)" d="m0 0h2v6l-2 5h-2l1-9z" fill="#23333F"/>
<path transform="translate(529,259)" d="m0 0 6 1 3-1 2 2-9 3-2-2z" fill="#FBFBF5"/>
</svg>
